<mxfile host="Electron" modified="2023-05-22T00:28:22.159Z" agent="Mozilla/5.0 (Windows NT 10.0; Win64; x64) AppleWebKit/537.36 (KHTML, like Gecko) draw.io/21.2.8 Chrome/112.0.5615.165 Electron/24.2.0 Safari/537.36" etag="FISaQ3jD2ddjpY6jm8rV" version="21.2.8" type="device">
  <diagram name="Page-1" id="0nb3nO2jskYJ2MFQ0Wkr">
    <mxGraphModel dx="1098" dy="838" grid="1" gridSize="10" guides="1" tooltips="1" connect="1" arrows="1" fold="1" page="1" pageScale="1" pageWidth="850" pageHeight="1100" math="0" shadow="0">
      <root>
        <mxCell id="0" />
        <mxCell id="1" parent="0" />
        <mxCell id="OdDGVyvyN6j4y6__5eIy-3" style="edgeStyle=orthogonalEdgeStyle;rounded=0;orthogonalLoop=1;jettySize=auto;html=1;entryX=0;entryY=0.5;entryDx=0;entryDy=0;entryPerimeter=0;" edge="1" parent="1" source="OdDGVyvyN6j4y6__5eIy-1" target="OdDGVyvyN6j4y6__5eIy-2">
          <mxGeometry relative="1" as="geometry" />
        </mxCell>
        <mxCell id="OdDGVyvyN6j4y6__5eIy-1" value="Publisher" style="rounded=1;whiteSpace=wrap;html=1;" vertex="1" parent="1">
          <mxGeometry x="50" y="348.38" width="120" height="60" as="geometry" />
        </mxCell>
        <mxCell id="OdDGVyvyN6j4y6__5eIy-10" style="edgeStyle=orthogonalEdgeStyle;rounded=0;orthogonalLoop=1;jettySize=auto;html=1;entryX=0;entryY=0.5;entryDx=0;entryDy=0;" edge="1" parent="1" source="OdDGVyvyN6j4y6__5eIy-2" target="OdDGVyvyN6j4y6__5eIy-7">
          <mxGeometry relative="1" as="geometry" />
        </mxCell>
        <mxCell id="OdDGVyvyN6j4y6__5eIy-11" style="edgeStyle=orthogonalEdgeStyle;rounded=0;orthogonalLoop=1;jettySize=auto;html=1;entryX=0;entryY=0.5;entryDx=0;entryDy=0;" edge="1" parent="1" source="OdDGVyvyN6j4y6__5eIy-2" target="OdDGVyvyN6j4y6__5eIy-8">
          <mxGeometry relative="1" as="geometry" />
        </mxCell>
        <mxCell id="OdDGVyvyN6j4y6__5eIy-12" style="edgeStyle=orthogonalEdgeStyle;rounded=0;orthogonalLoop=1;jettySize=auto;html=1;" edge="1" parent="1" source="OdDGVyvyN6j4y6__5eIy-2" target="OdDGVyvyN6j4y6__5eIy-9">
          <mxGeometry relative="1" as="geometry" />
        </mxCell>
        <mxCell id="OdDGVyvyN6j4y6__5eIy-2" value="SNS Topic" style="sketch=0;points=[[0,0,0],[0.25,0,0],[0.5,0,0],[0.75,0,0],[1,0,0],[0,1,0],[0.25,1,0],[0.5,1,0],[0.75,1,0],[1,1,0],[0,0.25,0],[0,0.5,0],[0,0.75,0],[1,0.25,0],[1,0.5,0],[1,0.75,0]];outlineConnect=0;fontColor=#232F3E;gradientColor=#FF4F8B;gradientDirection=north;fillColor=#BC1356;strokeColor=#ffffff;dashed=0;verticalLabelPosition=bottom;verticalAlign=top;align=center;html=1;fontSize=12;fontStyle=0;aspect=fixed;shape=mxgraph.aws4.resourceIcon;resIcon=mxgraph.aws4.sns;" vertex="1" parent="1">
          <mxGeometry x="220" y="339.38" width="78" height="78" as="geometry" />
        </mxCell>
        <mxCell id="OdDGVyvyN6j4y6__5eIy-4" value="" style="sketch=0;points=[[0.015,0.015,0],[0.985,0.015,0],[0.985,0.985,0],[0.015,0.985,0],[0.25,0,0],[0.5,0,0],[0.75,0,0],[1,0.25,0],[1,0.5,0],[1,0.75,0],[0.75,1,0],[0.5,1,0],[0.25,1,0],[0,0.75,0],[0,0.5,0],[0,0.25,0]];verticalLabelPosition=bottom;html=1;verticalAlign=top;aspect=fixed;align=center;pointerEvents=1;shape=mxgraph.cisco19.handheld;fillColor=#005073;strokeColor=none;" vertex="1" parent="1">
          <mxGeometry x="600" y="247.82" width="58.13" height="77.5" as="geometry" />
        </mxCell>
        <mxCell id="OdDGVyvyN6j4y6__5eIy-5" value="" style="sketch=0;points=[[0.015,0.015,0],[0.985,0.015,0],[0.985,0.985,0],[0.015,0.985,0],[0.25,0,0],[0.5,0,0],[0.75,0,0],[1,0.25,0],[1,0.5,0],[1,0.75,0],[0.75,1,0],[0.5,1,0],[0.25,1,0],[0,0.75,0],[0,0.5,0],[0,0.25,0]];verticalLabelPosition=bottom;html=1;verticalAlign=top;aspect=fixed;align=center;pointerEvents=1;shape=mxgraph.cisco19.handheld;fillColor=#005073;strokeColor=none;" vertex="1" parent="1">
          <mxGeometry x="600" y="337.2" width="58.13" height="77.5" as="geometry" />
        </mxCell>
        <mxCell id="OdDGVyvyN6j4y6__5eIy-6" value="" style="sketch=0;points=[[0.015,0.015,0],[0.985,0.015,0],[0.985,0.985,0],[0.015,0.985,0],[0.25,0,0],[0.5,0,0],[0.75,0,0],[1,0.25,0],[1,0.5,0],[1,0.75,0],[0.75,1,0],[0.5,1,0],[0.25,1,0],[0,0.75,0],[0,0.5,0],[0,0.25,0]];verticalLabelPosition=bottom;html=1;verticalAlign=top;aspect=fixed;align=center;pointerEvents=1;shape=mxgraph.cisco19.handheld;fillColor=#005073;strokeColor=none;" vertex="1" parent="1">
          <mxGeometry x="600" y="428.45" width="58.13" height="77.5" as="geometry" />
        </mxCell>
        <mxCell id="OdDGVyvyN6j4y6__5eIy-15" style="edgeStyle=orthogonalEdgeStyle;rounded=0;orthogonalLoop=1;jettySize=auto;html=1;entryX=0;entryY=0.5;entryDx=0;entryDy=0;" edge="1" parent="1" source="OdDGVyvyN6j4y6__5eIy-7" target="OdDGVyvyN6j4y6__5eIy-14">
          <mxGeometry relative="1" as="geometry" />
        </mxCell>
        <mxCell id="OdDGVyvyN6j4y6__5eIy-7" value="HTTPS" style="whiteSpace=wrap;html=1;" vertex="1" parent="1">
          <mxGeometry x="370" y="339.38" width="150" height="20" as="geometry" />
        </mxCell>
        <mxCell id="OdDGVyvyN6j4y6__5eIy-16" style="edgeStyle=orthogonalEdgeStyle;rounded=0;orthogonalLoop=1;jettySize=auto;html=1;entryX=0;entryY=0.5;entryDx=0;entryDy=0;" edge="1" parent="1" source="OdDGVyvyN6j4y6__5eIy-8" target="OdDGVyvyN6j4y6__5eIy-14">
          <mxGeometry relative="1" as="geometry" />
        </mxCell>
        <mxCell id="OdDGVyvyN6j4y6__5eIy-8" value="SMS" style="whiteSpace=wrap;html=1;" vertex="1" parent="1">
          <mxGeometry x="370" y="368.38" width="150" height="20" as="geometry" />
        </mxCell>
        <mxCell id="OdDGVyvyN6j4y6__5eIy-18" style="edgeStyle=orthogonalEdgeStyle;rounded=0;orthogonalLoop=1;jettySize=auto;html=1;entryX=0;entryY=0.5;entryDx=0;entryDy=0;" edge="1" parent="1" source="OdDGVyvyN6j4y6__5eIy-9" target="OdDGVyvyN6j4y6__5eIy-14">
          <mxGeometry relative="1" as="geometry" />
        </mxCell>
        <mxCell id="OdDGVyvyN6j4y6__5eIy-9" value="Email" style="whiteSpace=wrap;html=1;" vertex="1" parent="1">
          <mxGeometry x="370" y="397.38" width="150" height="20" as="geometry" />
        </mxCell>
        <mxCell id="OdDGVyvyN6j4y6__5eIy-14" value="Subscribers" style="rounded=1;arcSize=10;dashed=1;strokeColor=#005073;fillColor=none;gradientColor=none;dashPattern=8 4;strokeWidth=2;labelPosition=center;verticalLabelPosition=bottom;align=center;verticalAlign=top;" vertex="1" parent="1">
          <mxGeometry x="580" y="228.95" width="100" height="298.87" as="geometry" />
        </mxCell>
      </root>
    </mxGraphModel>
  </diagram>
</mxfile>
